# xmcd
#
# Track frame offsets: 
#        150
#        12678
#        28625
#        42272
#        61857
#        75550
#        93854
#        116248
#        131155
#        147150
#        161521
#        180810
#
# Disc length: 2628 seconds
#
# Revision: 0
# Processed by: cddbd v1.4PL0 Copyright (c) Steve Scherf et al.
# Submitted via: ExactAudioCopy v0.90b4
#
DISCID=960a420c
DTITLE=Janet Lynn - Last Call for Altar Call
DYEAR=1999
DGENRE=Gospel
TTITLE0=The Old Rugged Cross
TTITLE1=The Lighthouse
TTITLE2=In the Garden
TTITLE3=Nothing but the Blood
TTITLE4=Because He Lives
TTITLE5=Aubrey's Prayer
TTITLE6=Amazing Grace
TTITLE7=Something About that Name
TTITLE8=Through It All
TTITLE9=He Touched Me
TTITLE10=Just A Closer Walk with Thee
TTITLE11=Last Call for Altar Call
EXTD=
EXTT0=
EXTT1=
EXTT2=
EXTT3=
EXTT4=
EXTT5=
EXTT6=
EXTT7=
EXTT8=
EXTT9=
EXTT10=
EXTT11=
PLAYORDER=
